<svg xmlns="http://www.w3.org/2000/svg" width="132.612" height="106.09" viewBox="0 0 132.612 106.09">
  <path id="Icon_awesome-crown" data-name="Icon awesome-crown" d="M109.405,92.829h-86.2a3.325,3.325,0,0,0-3.315,3.315v6.631a3.325,3.325,0,0,0,3.315,3.315h86.2a3.325,3.325,0,0,0,3.315-3.315V96.144A3.325,3.325,0,0,0,109.405,92.829Zm13.261-66.306a9.948,9.948,0,0,0-9.946,9.946,9.744,9.744,0,0,0,.912,4.1l-15,8.993a6.622,6.622,0,0,1-9.159-2.4L72.585,17.613a9.946,9.946,0,1,0-12.557,0L43.14,47.16a6.626,6.626,0,0,1-9.159,2.4L19,40.571a9.943,9.943,0,1,0-9.055,5.843,10.155,10.155,0,0,0,1.6-.166L26.522,86.2H106.09l14.981-39.95a10.155,10.155,0,0,0,1.6.166,9.946,9.946,0,0,0,0-19.892Z" fill="#fff"/>
</svg>
